<svg width="26" height="21" viewBox="0 0 26 21" fill="none" xmlns="http://www.w3.org/2000/svg">
<path d="M5.07217 8.24255C6.82297 8.24255 8.24227 6.82325 8.24227 5.07245C8.24227 3.32165 6.82297 1.90234 5.07217 1.90234C3.32137 1.90234 1.90207 3.32165 1.90207 5.07245C1.90207 6.82325 3.32137 8.24255 5.07217 8.24255Z" fill="#F38120"/>
<path opacity="0.25" d="M5.07216 10.1443C7.87344 10.1443 10.1443 7.87344 10.1443 5.07216C10.1443 2.27089 7.87344 0 5.07216 0C2.27089 0 0 2.27089 0 5.07216C0 7.87344 2.27089 10.1443 5.07216 10.1443Z" fill="#F38120"/>
<path d="M24.4028 8.08419L20.2166 3.40342C19.3866 2.55865 18.0399 2.55865 17.2048 3.40874C16.9386 3.6797 16.7611 4.00379 16.6672 4.34383C15.832 3.69564 14.6315 3.75939 13.8642 4.54041C13.598 4.81137 13.4205 5.13547 13.3265 5.4755C12.4914 4.82731 11.2909 4.89107 10.5236 5.67208C10.2626 5.93773 10.0851 6.2512 9.99116 6.58592L8.00767 4.58291C7.17773 3.73814 5.83105 3.73814 4.99589 4.58823C4.16596 5.433 4.16596 6.80376 4.99589 7.64853L12.5749 15.3683L8.08074 16.0856C6.86455 16.2609 5.9511 17.3395 5.9511 18.588C5.9511 19.5231 6.70274 20.2882 7.62141 20.2882H18.1235C19.7572 20.2882 21.297 19.64 22.4558 18.4605L24.2096 16.6753C25.3632 15.5012 26 13.9338 26 12.2709C25.9948 10.7248 25.4258 9.23712 24.4028 8.08419ZM23.411 15.8784L21.6572 17.6636C20.7124 18.6252 19.4545 19.1565 18.113 19.1565H7.62141C7.31344 19.1565 7.0629 18.9015 7.0629 18.588C7.0629 17.8973 7.56921 17.3076 8.24777 17.2066L13.8329 16.3141C14.0416 16.2822 14.2087 16.1334 14.2765 15.9315C14.3392 15.7296 14.287 15.5065 14.1408 15.3577L5.78407 6.85157C5.38737 6.44778 5.38737 5.79428 5.78929 5.38518C5.98764 5.18328 6.24862 5.08234 6.50439 5.08234C6.76537 5.08234 7.02114 5.18328 7.21949 5.38518L12.7889 11.0542C13.0081 11.2773 13.3579 11.2773 13.5771 11.0542C13.6867 10.9426 13.7389 10.7991 13.7389 10.6504C13.7389 10.5016 13.6867 10.3582 13.5771 10.2466L11.3013 7.93012C10.9046 7.52633 10.9046 6.87282 11.3065 6.46372C11.7032 6.05993 12.3452 6.05993 12.7419 6.46372L15.0177 8.7802C15.237 9.00335 15.5867 9.00335 15.8059 8.7802C15.9155 8.66863 15.9677 8.52517 15.9677 8.37641C15.9677 8.22764 15.9155 8.08419 15.8059 7.97262L14.6419 6.78782C14.2452 6.38403 14.2452 5.73053 14.6471 5.32142C15.0438 4.91763 15.6859 4.91763 16.0826 5.32142L17.2518 6.51154C17.471 6.72406 17.8155 6.71875 18.0295 6.50091C18.2487 6.27777 18.2487 5.92179 18.0295 5.69865L17.9825 5.65083C17.7894 5.45425 17.685 5.19391 17.685 4.92295C17.685 4.65198 17.7894 4.39164 17.9878 4.18975C18.3844 3.78596 19.0265 3.79127 19.4023 4.1685L23.5728 8.83333C24.4132 9.77373 24.8725 10.9904 24.8725 12.2602C24.8778 13.6363 24.361 14.9167 23.411 15.8784Z" fill="#1C1C1C"/>
</svg>
