<svg width="20" height="21" viewBox="0 0 20 21" fill="none" xmlns="http://www.w3.org/2000/svg">
<path d="M9.9233 0.854492C4.59799 0.854492 0.27713 5.17535 0.27713 10.5007C0.27713 12.633 0.967345 14.5971 2.13454 16.1963L0.905618 19.8326L4.73827 18.6373C6.23654 19.5913 8.01539 20.1468 9.9233 20.1468C15.2486 20.1468 19.5695 15.826 19.5695 10.5007C19.5695 5.17535 15.2486 0.854492 9.9233 0.854492ZM14.3396 15.6745C12.5888 16.3759 10.5013 15.6969 8.2174 13.963C5.93352 12.229 4.42964 9.788 4.32863 7.97549C4.22763 6.16297 5.70345 5.2483 6.5059 5.25391C7.30834 5.25952 8.18935 7.82398 8.20057 8.21678C8.21179 8.6152 7.21856 9.32225 7.17928 9.65894C7.14 9.99563 8.53165 11.6566 9.12086 12.1056C9.70445 12.5489 10.9109 13.4018 11.5338 13.3232C12.1511 13.2391 12.5607 11.9989 12.9535 11.9204C13.3463 11.8418 15.4899 12.908 15.7031 13.183C15.9164 13.4635 15.8939 15.0572 14.3396 15.6745Z" fill="white"/>
</svg>
