<svg width="21" height="21" viewBox="0 0 21 21" fill="none" xmlns="http://www.w3.org/2000/svg">
<path d="M13.1356 0.864258H8.70558C4.41714 0.864258 0.958069 3.97734 0.958069 7.84139V10.8316C0.958069 13.5305 2.67749 15.9836 5.38811 17.1306V20.4712C5.38811 20.6396 5.56005 20.7944 5.7775 20.7944C5.86347 20.7944 5.96462 20.7625 6.03542 20.7033L9.23657 17.8042H13.1356C17.4291 17.8042 20.8882 14.6911 20.8882 10.827V7.83684C20.8882 3.97734 17.4291 0.864258 13.1356 0.864258ZM16.0485 13.9401L14.941 14.9369C13.7475 15.9791 10.6829 14.7821 7.97229 12.3017C5.26168 9.8212 4.05808 7.01305 5.20099 5.97081L6.3085 4.97407C6.75353 4.60542 7.45141 4.62362 7.89138 5.00593L9.49449 6.50786C9.90411 6.90837 9.90411 7.50459 9.45909 7.90511C9.33772 8.01434 9.20117 8.0735 9.04946 8.13722C8.48812 8.29197 8.19986 8.77895 8.33641 9.2887C8.60949 10.3947 10.157 11.7737 11.3353 12.0468C11.8814 12.1697 12.4428 11.892 12.6299 11.4187C12.817 10.9272 13.4289 10.6541 14.0105 10.8225C14.1824 10.868 14.319 10.9772 14.4555 11.0683L16.0586 12.5702C16.4581 12.9297 16.4581 13.5442 16.0485 13.9401ZM11.9118 5.60215C11.7904 5.60215 11.6893 5.60215 11.5881 5.63401C11.401 5.66587 11.1987 5.52478 11.1785 5.32908C11.1583 5.13337 11.2999 4.97863 11.5022 4.96042C11.6387 4.92856 11.7752 4.92856 11.9118 4.92856C13.9549 4.92856 15.5934 6.43049 15.6237 8.2419C15.6237 8.36479 15.6237 8.48767 15.5883 8.61056C15.5529 8.77895 15.4012 8.9337 15.1787 8.90184C14.9562 8.86998 14.8196 8.73344 14.855 8.53318C14.855 8.42395 14.8904 8.33293 14.8904 8.2419C14.8753 6.79914 13.5452 5.60215 11.9118 5.60215ZM14.1268 8.26921C14.0914 8.43761 13.9397 8.59235 13.7172 8.56049C13.5452 8.52863 13.3935 8.40575 13.3935 8.26921C13.3935 7.55011 12.731 6.94933 11.927 6.94933C11.7398 6.98119 11.5376 6.82645 11.5173 6.6444C11.4819 6.476 11.6539 6.29395 11.841 6.27574H11.8916C13.171 6.27574 14.1268 7.16325 14.1268 8.26921ZM16.9537 9.32511C16.9183 9.49351 16.7312 9.61639 16.5441 9.60274C16.357 9.58908 16.2205 9.40248 16.2356 9.23408C16.2356 9.20222 16.2356 9.20222 16.2356 9.18857C16.3216 8.89729 16.357 8.59235 16.357 8.26921C16.357 6.07549 14.3645 4.28228 11.927 4.28228C11.8056 4.28228 11.7044 4.28228 11.6033 4.28228C11.4162 4.31414 11.2139 4.15939 11.2139 3.97734C11.1785 3.80894 11.3504 3.62689 11.5376 3.62689C11.6741 3.62689 11.8106 3.59503 11.927 3.59503C14.7741 3.59503 17.1054 5.67952 17.1054 8.25556C17.0903 8.606 17.0397 8.98831 16.9537 9.32511Z" fill="white"/>
</svg>
